<svg xmlns="http://www.w3.org/2000/svg" viewBox="0 0 600 598.65"><defs><style>.cls-1,.cls-4{fill:#39a95e;}.cls-2{fill:#ff5765;}.cls-3{fill:#fff;}.cls-4{fill-rule:evenodd;}</style></defs><g id="Layer_2" data-name="Layer 2"><g id="Layer_1-2" data-name="Layer 1"><path class="cls-1" d="M419,173H79.63A79.81,79.81,0,0,0,0,252.63V447.45a79.82,79.82,0,0,0,79.63,79.62h62.78V588.4c0,11.31,9.63,13.12,18.69,6.14l87.53-67.47H419a79.83,79.83,0,0,0,79.63-79.62V252.63A79.82,79.82,0,0,0,419,173"/><path class="cls-2" d="M181.05,425.65H520.38A79.81,79.81,0,0,0,600,346V151.21a79.82,79.82,0,0,0-79.62-79.63H457.59V10.26c0-11.32-9.63-13.13-18.69-6.15L351.37,71.58H181.05a79.83,79.83,0,0,0-79.63,79.63V346a79.82,79.82,0,0,0,79.63,79.63"/><path class="cls-3" d="M101.42,173H240.71A68.63,68.63,0,0,1,300,207a68.66,68.66,0,0,1,59.3-34H419a79.83,79.83,0,0,1,79.63,79.63v173H359.3a68.68,68.68,0,0,0-59.3,34,68.66,68.66,0,0,0-59.29-34H181.05A79.83,79.83,0,0,1,101.42,346Z"/><path class="cls-4" d="M395.27,274.28c26.77,0,48.46,24.72,48.46,43.51s-21.69-8.65-48.46-8.65-48.45,27.45-48.45,8.65,21.69-43.51,48.45-43.51m-190.55,0c26.77,0,48.46,24.72,48.46,43.51s-21.69-8.65-48.46-8.65-48.45,27.45-48.45,8.65S178,274.28,204.72,274.28Z"/></g></g></svg>